<svg xmlns="http://www.w3.org/2000/svg" xmlns:xlink="http://www.w3.org/1999/xlink" width="500" zoomAndPan="magnify" viewBox="0 0 375 374.999991" height="500" preserveAspectRatio="xMidYMid meet" version="1.0"><defs><clipPath id="466fc72934"><path d="M 10 306 L 375 306 L 375 308.132812 L 10 308.132812 Z M 10 306 " clip-rule="nonzero"/></clipPath><clipPath id="7f4ae19ff3"><path d="M 0 32.882812 L 99 32.882812 L 99 49 L 0 49 Z M 0 32.882812 " clip-rule="nonzero"/></clipPath></defs><g clip-path="url(#466fc72934)"><path fill="#3f3d58" d="M 10.414062 307.445312 C 10.414062 307.78125 10.6875 308.050781 11.023438 308.050781 L 383.046875 308.050781 C 383.382812 308.050781 383.652344 307.78125 383.652344 307.445312 C 383.652344 307.109375 383.382812 306.835938 383.046875 306.835938 L 11.023438 306.835938 C 10.6875 306.835938 10.414062 307.109375 10.414062 307.445312 Z M 10.414062 307.445312 " fill-opacity="1" fill-rule="nonzero"/></g><path fill="#ffde59" d="M 129.542969 81.421875 L 10.226562 81.421875 C 5.675781 81.421875 1.972656 77.71875 1.972656 73.167969 C 1.972656 68.617188 5.675781 64.914062 10.226562 64.914062 L 129.542969 64.914062 C 134.09375 64.914062 137.796875 68.617188 137.796875 73.167969 C 137.796875 77.71875 134.09375 81.421875 129.542969 81.421875 Z M 10.226562 65.933594 C 6.238281 65.933594 2.992188 69.179688 2.992188 73.167969 C 2.992188 77.15625 6.238281 80.402344 10.226562 80.402344 L 129.542969 80.402344 C 133.53125 80.402344 136.777344 77.15625 136.777344 73.167969 C 136.777344 69.179688 133.53125 65.933594 129.542969 65.933594 Z M 10.226562 65.933594 " fill-opacity="1" fill-rule="nonzero"/><path fill="#ffffff" d="M 129.542969 178.011719 L 10.226562 178.011719 C 5.8125 178.011719 2.226562 174.425781 2.226562 170.015625 C 2.226562 165.601562 5.8125 162.015625 10.226562 162.015625 L 129.542969 162.015625 C 133.957031 162.015625 137.542969 165.601562 137.542969 170.015625 C 137.542969 174.425781 133.957031 178.011719 129.542969 178.011719 Z M 129.542969 178.011719 " fill-opacity="1" fill-rule="nonzero"/><g clip-path="url(#7f4ae19ff3)"><path fill="#ffde59" d="M 90.441406 48.882812 L 8.261719 48.882812 C 3.851562 48.882812 0.265625 45.296875 0.265625 40.882812 C 0.265625 36.46875 3.851562 32.882812 8.261719 32.882812 L 90.441406 32.882812 C 94.855469 32.882812 98.441406 36.46875 98.441406 40.882812 C 98.441406 45.296875 94.855469 48.882812 90.441406 48.882812 Z M 90.441406 48.882812 " fill-opacity="1" fill-rule="nonzero"/></g><path fill="#ffde59" d="M 129.542969 113.703125 L 10.226562 113.703125 C 5.675781 113.703125 1.972656 110 1.972656 105.449219 C 1.972656 100.898438 5.675781 97.195312 10.226562 97.195312 L 129.542969 97.195312 C 134.09375 97.195312 137.796875 100.898438 137.796875 105.449219 C 137.796875 110 134.09375 113.703125 129.542969 113.703125 Z M 10.226562 98.214844 C 6.238281 98.214844 2.992188 101.460938 2.992188 105.449219 C 2.992188 109.4375 6.238281 112.679688 10.226562 112.679688 L 129.542969 112.679688 C 133.53125 112.679688 136.777344 109.4375 136.777344 105.449219 C 136.777344 101.460938 133.53125 98.214844 129.542969 98.214844 Z M 10.226562 98.214844 " fill-opacity="1" fill-rule="nonzero"/><path fill="#ffde59" d="M 129.542969 145.988281 L 10.226562 145.988281 C 5.675781 145.988281 1.972656 142.285156 1.972656 137.734375 C 1.972656 133.183594 5.675781 129.480469 10.226562 129.480469 L 129.542969 129.480469 C 134.09375 129.480469 137.796875 133.183594 137.796875 137.734375 C 137.796875 142.285156 134.09375 145.988281 129.542969 145.988281 Z M 10.226562 130.5 C 6.238281 130.5 2.992188 133.746094 2.992188 137.734375 C 2.992188 141.722656 6.238281 144.96875 10.226562 144.96875 L 129.542969 144.96875 C 133.53125 144.96875 136.777344 141.722656 136.777344 137.734375 C 136.777344 133.746094 133.53125 130.5 129.542969 130.5 Z M 10.226562 130.5 " fill-opacity="1" fill-rule="nonzero"/><path fill="#ffde59" d="M 6.125 58.988281 L 37.394531 58.988281 C 38.140625 58.988281 38.746094 59.589844 38.746094 60.339844 C 38.746094 61.082031 38.140625 61.691406 37.394531 61.691406 L 6.125 61.691406 C 5.378906 61.691406 4.773438 61.089844 4.773438 60.339844 C 4.773438 59.59375 5.378906 58.988281 6.125 58.988281 Z M 6.125 58.988281 " fill-opacity="1" fill-rule="nonzero"/><path fill="#ffde59" d="M 6.125 92.03125 L 37.394531 92.03125 C 38.140625 92.03125 38.746094 92.632812 38.746094 93.378906 C 38.746094 94.125 38.140625 94.730469 37.394531 94.730469 L 6.125 94.730469 C 5.378906 94.730469 4.773438 94.128906 4.773438 93.382812 C 4.773438 92.640625 5.378906 92.03125 6.125 92.03125 Z M 6.125 92.03125 " fill-opacity="1" fill-rule="nonzero"/><path fill="#ffde59" d="M 6.125 125.082031 L 37.394531 125.082031 C 38.140625 125.082031 38.746094 125.683594 38.746094 126.433594 C 38.746094 127.179688 38.140625 127.78125 37.394531 127.78125 L 6.125 127.78125 C 5.378906 127.78125 4.773438 127.179688 4.773438 126.429688 C 4.773438 125.683594 5.378906 125.082031 6.125 125.082031 Z M 6.125 125.082031 " fill-opacity="1" fill-rule="nonzero"/><path fill="#9f616a" d="M 228.328125 100.351562 L 216.921875 104.105469 L 216.921875 87.6875 L 227.273438 87.6875 Z M 228.328125 100.351562 " fill-opacity="1" fill-rule="nonzero"/><path fill="#9f616a" d="M 229.699219 80.867188 C 229.699219 81.613281 229.628906 82.351562 229.480469 83.082031 C 229.335938 83.816406 229.121094 84.527344 228.835938 85.214844 C 228.550781 85.90625 228.199219 86.558594 227.785156 87.179688 C 227.371094 87.800781 226.898438 88.375 226.371094 88.902344 C 225.84375 89.429688 225.269531 89.902344 224.648438 90.316406 C 224.027344 90.730469 223.375 91.082031 222.683594 91.367188 C 221.996094 91.652344 221.285156 91.867188 220.550781 92.011719 C 219.820312 92.15625 219.082031 92.230469 218.335938 92.230469 C 217.589844 92.230469 216.847656 92.15625 216.117188 92.011719 C 215.386719 91.867188 214.675781 91.652344 213.984375 91.367188 C 213.296875 91.082031 212.640625 90.730469 212.019531 90.316406 C 211.398438 89.902344 210.824219 89.429688 210.296875 88.902344 C 209.769531 88.375 209.300781 87.800781 208.882812 87.179688 C 208.46875 86.558594 208.121094 85.90625 207.835938 85.214844 C 207.546875 84.527344 207.332031 83.816406 207.1875 83.082031 C 207.042969 82.351562 206.96875 81.613281 206.96875 80.867188 C 206.96875 80.121094 207.042969 79.378906 207.1875 78.648438 C 207.332031 77.917969 207.546875 77.207031 207.835938 76.515625 C 208.121094 75.828125 208.46875 75.171875 208.882812 74.550781 C 209.300781 73.929688 209.769531 73.355469 210.296875 72.828125 C 210.824219 72.300781 211.398438 71.832031 212.019531 71.414062 C 212.640625 71 213.296875 70.652344 213.984375 70.367188 C 214.675781 70.078125 215.386719 69.863281 216.117188 69.71875 C 216.847656 69.574219 217.589844 69.5 218.335938 69.5 C 219.082031 69.5 219.820312 69.574219 220.550781 69.71875 C 221.285156 69.863281 221.996094 70.078125 222.683594 70.367188 C 223.375 70.652344 224.027344 71 224.648438 71.414062 C 225.269531 71.832031 225.84375 72.300781 226.371094 72.828125 C 226.898438 73.355469 227.371094 73.929688 227.785156 74.550781 C 228.199219 75.171875 228.550781 75.828125 228.835938 76.515625 C 229.121094 77.207031 229.335938 77.917969 229.480469 78.648438 C 229.628906 79.378906 229.699219 80.121094 229.699219 80.867188 Z M 229.699219 80.867188 " fill-opacity="1" fill-rule="nonzero"/><path fill="#2f2e43" d="M 221.457031 79.738281 C 219.554688 79.683594 218.304688 77.757812 217.5625 76.003906 C 216.824219 74.25 216.066406 72.234375 214.300781 71.511719 C 212.855469 70.917969 210.308594 74.921875 209.171875 73.855469 C 207.984375 72.746094 209.140625 67.035156 210.402344 66.011719 C 211.664062 64.984375 213.386719 64.785156 215.007812 64.710938 C 218.96875 64.527344 222.953125 64.847656 226.832031 65.660156 C 229.234375 66.160156 231.703125 66.914062 233.4375 68.648438 C 235.632812 70.851562 236.195312 74.171875 236.351562 77.28125 C 236.515625 80.457031 236.332031 83.785156 234.785156 86.5625 C 233.242188 89.34375 230.007812 91.394531 226.90625 90.683594 C 226.59375 89 226.910156 87.273438 227.03125 85.558594 C 227.148438 83.851562 227.027344 82.003906 225.980469 80.640625 C 224.941406 79.277344 222.707031 78.738281 221.492188 79.949219 " fill-opacity="1" fill-rule="nonzero"/><path fill="#2f2e43" d="M 235.4375 83.675781 C 236.578125 82.84375 237.9375 82.144531 239.335938 82.320312 C 240.847656 82.503906 242.125 83.746094 242.515625 85.222656 C 242.902344 86.695312 242.46875 88.320312 241.53125 89.523438 C 240.597656 90.726562 239.203125 91.523438 237.734375 91.917969 C 236.882812 92.148438 235.949219 92.246094 235.136719 91.898438 C 233.945312 91.382812 233.296875 89.859375 233.765625 88.644531 " fill-opacity="1" fill-rule="nonzero"/><path fill="#9f616a" d="M 191.945312 190.613281 C 191.1875 194.347656 192.578125 197.757812 195.046875 198.234375 C 197.515625 198.707031 200.132812 196.058594 200.886719 192.328125 C 201.210938 190.835938 201.160156 189.296875 200.742188 187.828125 L 210.140625 129.292969 L 198.382812 127.078125 L 193.84375 186.507812 C 192.878906 187.710938 192.230469 189.117188 191.945312 190.617188 Z M 191.945312 190.613281 " fill-opacity="1" fill-rule="nonzero"/><path fill="#ffde59" d="M 216.800781 96.570312 L 208.773438 96.570312 C 203.101562 97.433594 201.5625 100.460938 200.269531 106.050781 C 198.300781 114.578125 195.789062 125.933594 196.289062 126.101562 C 197.089844 126.367188 210.75 132.796875 217.710938 131.328125 Z M 216.800781 96.570312 " fill-opacity="1" fill-rule="nonzero"/><path fill="#9f616a" d="M 213.875 283.023438 L 224.558594 283.023438 L 224.558594 298.179688 L 213.875 298.179688 Z M 213.875 283.023438 " fill-opacity="1" fill-rule="nonzero"/><path fill="#2f2e43" d="M 203.476562 307.351562 C 202.351562 307.351562 201.351562 307.328125 200.597656 307.257812 C 197.761719 306.996094 195.054688 304.898438 193.691406 303.675781 C 193.078125 303.125 192.886719 302.246094 193.199219 301.492188 C 193.429688 300.949219 193.882812 300.542969 194.449219 300.382812 L 201.949219 298.242188 L 214.089844 290.050781 L 214.226562 290.292969 C 214.277344 290.386719 215.472656 292.535156 215.871094 293.984375 C 216.023438 294.535156 215.984375 294.992188 215.753906 295.351562 C 215.59375 295.59375 215.371094 295.738281 215.191406 295.820312 C 215.410156 296.046875 216.101562 296.519531 218.222656 296.855469 C 221.320312 297.34375 221.972656 294.136719 221.996094 294.003906 L 222.019531 293.894531 L 222.109375 293.835938 C 223.582031 292.886719 224.492188 292.453125 224.804688 292.542969 C 224.996094 292.601562 225.324219 292.703125 226.207031 301.441406 C 226.292969 301.714844 226.910156 303.726562 226.492188 305.648438 C 226.039062 307.742188 216.894531 307.019531 215.066406 306.859375 C 215.015625 306.863281 208.167969 307.351562 203.480469 307.351562 Z M 203.476562 307.351562 " fill-opacity="1" fill-rule="nonzero"/><path fill="#9f616a" d="M 245.910156 276.769531 L 254.972656 271.117188 L 262.996094 283.976562 L 253.929688 289.628906 Z M 245.910156 276.769531 " fill-opacity="1" fill-rule="nonzero"/><path fill="#2f2e43" d="M 242.9375 305.277344 C 241.683594 305.277344 240.53125 305.125 239.707031 304.980469 C 238.902344 304.839844 238.269531 304.195312 238.136719 303.390625 C 238.046875 302.808594 238.214844 302.222656 238.613281 301.789062 L 243.839844 296.003906 L 249.808594 282.628906 L 250.054688 282.761719 C 250.144531 282.8125 252.292969 284 253.398438 285.019531 C 253.824219 285.40625 254.03125 285.820312 254.023438 286.246094 C 254.015625 286.539062 253.90625 286.773438 253.792969 286.941406 C 254.097656 287.023438 254.929688 287.054688 256.910156 286.21875 C 259.796875 285 258.65625 281.929688 258.601562 281.800781 L 258.5625 281.699219 L 258.609375 281.601562 C 259.359375 280.015625 259.894531 279.167969 260.210938 279.082031 C 260.410156 279.027344 260.734375 278.9375 266.105469 285.890625 C 266.328125 286.074219 267.914062 287.457031 268.578125 289.308594 C 269.296875 291.324219 261.160156 295.554688 259.523438 296.378906 C 259.46875 296.421875 250.957031 302.609375 247.457031 304.367188 C 246.070312 305.066406 244.425781 305.28125 242.933594 305.28125 Z M 242.9375 305.277344 " fill-opacity="1" fill-rule="nonzero"/><path fill="#2f2e43" d="M 232.425781 156.285156 L 202.515625 156.285156 L 199.800781 184.109375 L 211.675781 286.90625 L 226.945312 286.90625 L 220.839844 227.535156 L 245.605469 281.136719 L 259.175781 271.640625 L 239.835938 221.597656 C 239.835938 221.597656 246.742188 178.003906 241.316406 167.140625 C 235.886719 156.285156 232.425781 156.285156 232.425781 156.285156 Z M 232.425781 156.285156 " fill-opacity="1" fill-rule="nonzero"/><path fill="#ffde59" d="M 247.304688 157.980469 L 199.800781 157.980469 L 214.054688 96.570312 L 234.75 96.570312 Z M 247.304688 157.980469 " fill-opacity="1" fill-rule="nonzero"/><path fill="#9f616a" d="M 251.578125 190.613281 C 252.339844 194.347656 250.945312 197.757812 248.476562 198.234375 C 246.007812 198.707031 243.390625 196.058594 242.636719 192.328125 C 242.316406 190.835938 242.367188 189.296875 242.785156 187.828125 L 233.382812 129.292969 L 245.140625 127.078125 L 249.679688 186.507812 C 250.644531 187.710938 251.292969 189.117188 251.578125 190.617188 Z M 251.578125 190.613281 " fill-opacity="1" fill-rule="nonzero"/><path fill="#ffde59" d="M 226.726562 96.570312 L 234.75 96.570312 C 240.421875 97.433594 241.964844 100.460938 243.253906 106.050781 C 245.222656 114.578125 247.738281 125.933594 247.238281 126.101562 C 246.4375 126.367188 232.777344 132.796875 225.8125 131.328125 Z M 226.726562 96.570312 " fill-opacity="1" fill-rule="nonzero"/></svg>